<svg width="50" height="44" viewBox="0 0 50 44" fill="none" xmlns="http://www.w3.org/2000/svg">
<path d="M20.4008 0.799805C6.80078 7.99981 0.800781 18.9998 0.800781 28.1998C0.800781 35.9998 4.20078 43.3998 12.2008 43.3998C17.4008 43.3998 22.4008 38.9998 22.4008 33.1998C22.4008 26.9998 18.0008 23.3998 12.0008 23.1998C9.00078 22.7998 6.40078 22.7998 6.00078 19.5998C5.00078 14.1998 15.0008 4.59981 20.6008 1.19981L20.4008 0.799805ZM47.4008 0.799805C33.8008 7.99981 27.8008 18.9998 27.8008 28.1998C27.8008 35.9998 31.2008 43.3998 39.2008 43.3998C44.4008 43.3998 49.4008 38.9998 49.4008 33.1998C49.4008 26.9998 45.0008 23.3998 39.0008 23.1998C36.0008 22.7998 33.4008 22.7998 33.0008 19.5998C32.0008 14.1998 42.0008 4.59981 47.6008 1.19981L47.4008 0.799805Z" fill="#FA8D04"/>
</svg>
